# File created by Blade
# Date/Time:  Thu Jan 15 17:55:17 2015
#---------------------------------------------------------
:version 1.10
:name HOM
:units
  mass 1.0
  length 1.000000
  angle deg
:documentation
     Acclaim Skeleton File
:root
   axis xyz
   order TX TY TZ RX RY RZ
   position 0.000000 0.000000 0.000000
   orientation 0 0 0
:bonedata
   begin
      id 1
      name Spine_dum
      direction 0.000000 1.000000 0.000000
      length 5.015652
      axis 0.0 0.0 0.0 xyz
   end
   begin
      id 2
      name LeftUpLeg_dum
      direction 1.000000 0.000000 0.000000
      length 4.275145
      axis 0.0 0.0 0.0 xyz
   end
   begin
      id 3
      name RightUpLeg_dum
      direction -1.000000 0.000000 0.000000
      length 4.275145
      axis 0.0 0.0 0.0 xyz
   end
   begin
      id 4
      name Spine
      direction 0.000000 1.000000 0.000000
      length 0.000000
      axis 0.0 0.0 0.0 xyz
      dof rx ry rz
   end
   begin
      id 5
      name Spine_dum1
      direction 0.000000 1.000000 0.000000
      length 15.980521
      axis 0.0 0.0 0.0 xyz
   end
   begin
      id 6
      name Spine_dum2
      direction 0.000000 1.000000 0.000000
      length 12.162712
      axis 0.0 0.0 0.0 xyz
   end
   begin
      id 7
      name Spine_dum3
      direction 0.000000 1.000000 0.000000
      length 12.162712
      axis 0.0 0.0 0.0 xyz
   end
   begin
      id 8
      name Head
      direction 0.000000 1.000000 0.000000
      length 4.527550
      axis 0.0 0.0 0.0 xyz
      dof rx ry rz
   end
   begin
      id 9
      name LeftShoulder
      direction 1.000000 0.000000 0.000000
      length 7.205867
      axis 0.0 0.0 -90.0 xyz
      dof rx ry rz
   end
   begin
      id 10
      name LeftArm
      direction 1.000000 0.000000 0.000000
      length 10.786708
      axis 0.0 0.0 -90.0 xyz
      dof rx ry rz
   end
   begin
      id 11
      name LeftForeArm
      direction 1.000000 0.000000 0.000000
      length 7.946034
      axis 0.0 0.0 -90.0 xyz
      dof rz ry rx
   end
   begin
      id 12
      name LeftHand
      direction 0.000000 0.000000 0.000000
      length 0.000000
      axis 0.0 0.0 -90.0 xyz
      dof rx ry rz
   end
   begin
      id 13
      name LeftHand_dum1
      direction 0.000000 0.000000 0.000000
      length 0.000000
      axis 0.0 0.0 -90.0 xyz
   end
   begin
      id 14
      name LeftHand_dum2
      direction 1.000000 0.000000 0.000000
      length 3.937000
      axis 0.0 0.0 -90.0 xyz
   end
   begin
      id 15
      name LeftHandThumb1
      direction 0.000000 0.000000 1.000000
      length 3.937000
      axis 0.0 0.0 -90.0 xyz
      dof rx ry rz
   end
   begin
      id 16
      name RightShoulder
      direction -1.000000 0.000000 0.000000
      length 7.205867
      axis 0.0 0.0 90.0 xyz
      dof rx ry rz
   end
   begin
      id 17
      name RightArm
      direction -1.000000 0.000000 0.000000
      length 10.786708
      axis 0.0 0.0 90.0 xyz
      dof rx ry rz
   end
   begin
      id 18
      name RightForeArm
      direction -1.000000 0.000000 0.000000
      length 7.946034
      axis 0.0 0.0 90.0 xyz
      dof rz ry rx
   end
   begin
      id 19
      name RightHand
      direction 0.000000 0.000000 0.000000
      length 0.000000
      axis 0.0 0.0 90.0 xyz
      dof rx ry rz
   end
   begin
      id 20
      name RightHand_dum1
      direction 0.000000 0.000000 0.000000
      length 0.000000
      axis 0.0 0.0 90.0 xyz
   end
   begin
      id 21
      name RightHand_dum2
      direction -1.000000 0.000000 0.000000
      length 3.937000
      axis 0.0 0.0 90.0 xyz
   end
   begin
      id 22
      name RightHandThumb1
      direction 0.000000 0.000000 1.000000
      length 3.937000
      axis 0.0 0.0 90.0 xyz
      dof rx ry rz
   end
   begin
      id 23
      name LeftUpLeg
      direction 0.000000 -1.000000 0.000000
      length 17.046659
      axis 0.0 0.0 0.0 xyz
      dof rx ry rz
   end
   begin
      id 24
      name LeftLeg
      direction 0.000000 -1.000000 0.000000
      length 17.458438
      axis 0.0 0.0 0.0 xyz
      dof rx ry rz
   end
   begin
      id 25
      name LeftFoot
      direction 0.000000 -0.258819 0.965926
      length 5.099406
      axis 15.0 0.0 0.0 xyz
      dof rx ry rz
   end
   begin
      id 26
      name LeftToeBase
      direction 0.000000 0.000000 1.000000
      length 2.952750
      axis 0.0 0.0 0.0 xyz
      dof rx ry rz
   end
   begin
      id 27
      name RightUpLeg
      direction 0.000000 -1.000000 0.000000
      length 17.046659
      axis 0.0 0.0 0.0 xyz
      dof rx ry rz
   end
   begin
      id 28
      name RightLeg
      direction 0.000000 -1.000000 0.000000
      length 17.458438
      axis 0.0 0.0 0.0 xyz
      dof rx ry rz
   end
   begin
      id 29
      name RightFoot
      direction 0.000000 -0.258819 0.965926
      length 5.099406
      axis 15.0 0.0 0.0 xyz
      dof rx ry rz
   end
   begin
      id 30
      name RightToeBase
      direction 0.000000 0.000000 1.000000
      length 2.952750
      axis 0.0 0.0 0.0 xyz
      dof rx ry rz
   end
:hierarchy
   begin
      root Spine_dum LeftUpLeg_dum RightUpLeg_dum
      Spine_dum Spine
      LeftUpLeg_dum LeftUpLeg
      RightUpLeg_dum RightUpLeg
      Spine Spine_dum1 Spine_dum2 Spine_dum3
      Spine_dum1 Head
      Spine_dum2 LeftShoulder
      Spine_dum3 RightShoulder
      LeftShoulder LeftArm
      LeftArm LeftForeArm
      LeftForeArm LeftHand
      LeftHand LeftHand_dum1 LeftHand_dum2
      LeftHand_dum1 LeftHandThumb1
      RightShoulder RightArm
      RightArm RightForeArm
      RightForeArm RightHand
      RightHand RightHand_dum1 RightHand_dum2
      RightHand_dum1 RightHandThumb1
      LeftUpLeg LeftLeg
      LeftLeg LeftFoot
      LeftFoot LeftToeBase
      RightUpLeg RightLeg
      RightLeg RightFoot
      RightFoot RightToeBase
   end

# File created by Blade
# Date/Time:  Thu Jan 15 17:55:09 2015
# Frame Rate: 120.000 fps
#------------------------------------------------------
:FULLY-SPECIFIED
:DEGREES
314
root 7.734832 35.894028 -12.206393 1.507485 -5.635512 0.892799
Spine 3.453733 -10.762214 -5.445626
Head -5.817400 12.333362 19.779806
LeftShoulder -19.689730 -6.274787 4.541010
LeftArm 27.221660 -14.578722 -68.960957
LeftForeArm -0.000000 28.376843 -5.642635
LeftHand -1.398150 -0.000000 3.794706
LeftHandThumb1 -26.253704 33.147579 0.000000
RightShoulder 11.657173 14.626075 11.324760
RightArm 14.711680 18.978673 75.512457
RightForeArm -0.000000 -49.803623 7.697902
RightHand -3.471733 -0.000000 0.813256
RightHandThumb1 -24.326973 -32.862282 -0.000000
LeftUpLeg -0.100510 9.736246 -4.356315
LeftLeg 3.750959 -0.000000 -0.000000
LeftFoot -24.264787 22.265753 -12.620384
LeftToeBase 24.462289 -0.000000 -0.000000
RightUpLeg -12.040784 -11.636398 -2.860546
RightLeg 23.580890 -0.000000 -0.000000
RightFoot -29.622935 -23.367729 17.846520
RightToeBase 13.473870 -0.000000 -0.000000
315
root 7.723885 35.894593 -12.229114 1.398349 -5.676697 0.904655
Spine 3.630545 -10.448685 -5.523228
Head -5.851245 12.223692 19.843446
LeftShoulder -19.073991 -6.668045 4.922934
LeftArm 28.603184 -12.852860 -68.732425
LeftForeArm -0.000000 28.330362 -5.390881
LeftHand -1.414571 -0.000000 3.536023
LeftHandThumb1 -26.253704 33.147579 0.000000
RightShoulder 12.216846 14.992767 11.377016
RightArm 16.209556 17.197962 75.847412
RightForeArm -0.000000 -50.069602 7.663480
RightHand -3.465922 0.000000 0.933813
RightHandThumb1 -24.326973 -32.862282 -0.000000
LeftUpLeg -0.042477 9.885060 -4.332094
LeftLeg 3.777105 -0.000000 -0.000000
LeftFoot -24.217128 22.192549 -12.581233
LeftToeBase 24.538647 -0.000000 -0.000000
RightUpLeg -12.034398 -11.829198 -2.699613
RightLeg 23.763870 -0.000000 -0.000000
RightFoot -29.877983 -22.808685 17.897262
RightToeBase 13.143248 -0.000000 -0.000000
316
root 7.710377 35.895367 -12.251792 1.347093 -5.670559 0.891911
Spine 3.744041 -10.210193 -5.551108
Head -5.881856 12.113527 19.889318
LeftShoulder -18.470029 -7.124494 5.418247
LeftArm 29.990976 -12.146182 -69.057370
LeftForeArm -0.000000 29.371632 -5.213774
LeftHand -1.515346 0.000000 3.591795
LeftHandThumb1 -26.253704 33.147579 0.000000
RightShoulder 12.803064 15.404334 11.383166
RightArm 17.626421 15.334714 76.025177
RightForeArm -0.000000 -50.354605 7.643780
RightHand -3.258456 0.000000 0.961379
RightHandThumb1 -24.326973 -32.862282 -0.000000
LeftUpLeg -0.081885 10.025446 -4.285795
LeftLeg 3.880892 -0.000000 -0.000000
LeftFoot -24.202243 22.080499 -12.526459
LeftToeBase 24.601164 -0.000000 -0.000000
RightUpLeg -12.075262 -12.251096 -2.502152
RightLeg 23.937936 -0.000000 -0.000000
RightFoot -29.997626 -22.069323 17.815834
RightToeBase 13.668286 -0.000000 -0.000000
317
root 7.698522 35.896320 -12.268654 1.273142 -5.643451 0.912645
Spine 3.876451 -9.983564 -5.610999
Head -5.926445 11.985961 19.933085
LeftShoulder -17.916878 -7.587821 5.892860
LeftArm 31.365636 -10.905231 -69.028631
LeftForeArm -0.000000 29.920194 -5.035924
LeftHand -1.533840 -0.000000 3.479890
LeftHandThumb1 -26.253704 33.147579 0.000000
RightShoulder 13.413354 15.810015 11.348283
RightArm 19.007146 13.534047 76.064835
RightForeArm -0.000000 -50.706232 7.712279
RightHand -3.151348 -0.000000 0.843007
RightHandThumb1 -24.326973 -32.862282 -0.000000
LeftUpLeg -0.087022 10.061718 -4.272596
LeftLeg 3.976310 -0.000000 -0.000000
LeftFoot -24.184484 22.022934 -12.557670
LeftToeBase 24.531937 -0.000000 -0.000000
RightUpLeg -12.039769 -12.519947 -2.358937
RightLeg 24.036937 -0.000000 -0.000000
RightFoot -30.054454 -21.503978 17.765760
RightToeBase 13.647797 -0.000000 -0.000000
318
root 7.682012 35.896850 -12.294812 1.276436 -5.602489 0.939592
Spine 3.945229 -9.767696 -5.662589
Head -5.994228 11.836001 19.951977
LeftShoulder -17.361963 -8.144960 6.399258
LeftArm 32.648861 -9.516731 -68.814901
LeftForeArm -0.000000 30.332289 -4.858399
LeftHand -1.489025 0.000000 3.023097
LeftHandThumb1 -26.253704 33.147579 0.000000
RightShoulder 13.968730 16.139335 11.235936
RightArm 20.450602 11.059810 75.693755
RightForeArm -0.000000 -50.147754 7.714059
RightHand -2.839311 -0.000000 0.708027
RightHandThumb1 -24.326973 -32.862282 -0.000000
LeftUpLeg -0.237705 10.103717 -4.270720
LeftLeg 4.174981 -0.000000 -0.000000
LeftFoot -24.204974 21.922583 -12.604922
LeftToeBase 24.515880 -0.000000 -0.000000
RightUpLeg -12.087466 -12.647455 -2.202104
RightLeg 24.136926 -0.000000 -0.000000
RightFoot -30.131639 -21.046821 17.806290
RightToeBase 13.779891 -0.000000 -0.000000
319
root 7.667335 35.895608 -12.321631 1.331534 -5.580383 0.961750
Spine 3.948392 -9.553543 -5.687104
Head -6.052171 11.668278 19.957762
LeftShoulder -16.824258 -8.634613 6.908726
LeftArm 33.914091 -7.868506 -68.392672
LeftForeArm -0.000000 30.233936 -4.566692
LeftHand -1.448810 -0.000000 3.200248
LeftHandThumb1 -26.253704 33.147579 0.000000
RightShoulder 14.670829 16.641009 11.059237
RightArm 21.734395 9.902109 75.799117
RightForeArm -0.000000 -50.677195 7.795913
RightHand -2.746050 -0.000000 0.840678
RightHandThumb1 -24.326973 -32.862282 -0.000000
LeftUpLeg -0.477051 10.139534 -4.279188
LeftLeg 4.445689 -0.000000 -0.000000
LeftFoot -24.290150 21.835624 -12.664017
LeftToeBase 24.464360 -0.000000 -0.000000
RightUpLeg -12.197332 -12.751461 -2.033647
RightLeg 24.249828 -0.000000 -0.000000
RightFoot -30.093666 -20.592758 17.807261
RightToeBase 13.924681 -0.000000 -0.000000
